<?xml version="1.0" encoding="UTF-8" standalone="no"?>
<!-- Created with Inkscape (http://www.inkscape.org/) -->

<svg
   xmlns:dc="http://purl.org/dc/elements/1.1/"
   xmlns:cc="http://creativecommons.org/ns#"
   xmlns:rdf="http://www.w3.org/1999/02/22-rdf-syntax-ns#"
   xmlns:svg="http://www.w3.org/2000/svg"
   xmlns="http://www.w3.org/2000/svg"
   xmlns:sodipodi="http://sodipodi.sourceforge.net/DTD/sodipodi-0.dtd"
   xmlns:inkscape="http://www.inkscape.org/namespaces/inkscape"
   width="144.59944mm"
   height="143.02911mm"
   viewBox="0 0 512.36023 506.79607"
   id="svg2"
   version="1.1"
   inkscape:version="0.91 r13725"
   sodipodi:docname="GT.svg"
   inkscape:export-filename="D:\mtustuff\GT_FieldResearch.png"
   inkscape:export-xdpi="1200"
   inkscape:export-ydpi="1200">
  <title
     id="title4140">GT Logo</title>
  <defs
     id="defs4" />
  <sodipodi:namedview
     id="base"
     pagecolor="#ffffff"
     bordercolor="#666666"
     borderopacity="1.0"
     inkscape:pageopacity="0.0"
     inkscape:pageshadow="2"
     inkscape:zoom="1.0603231"
     inkscape:cx="190.48594"
     inkscape:cy="307.38014"
     inkscape:document-units="px"
     inkscape:current-layer="layer1"
     showgrid="false"
     fit-margin-top="0"
     fit-margin-left="0"
     fit-margin-right="0"
     fit-margin-bottom="0"
     inkscape:window-width="1920"
     inkscape:window-height="1017"
     inkscape:window-x="-8"
     inkscape:window-y="-8"
     inkscape:window-maximized="1" />
  <metadata
     id="metadata7">
    <rdf:RDF>
      <cc:Work
         rdf:about="">
        <dc:format>image/svg+xml</dc:format>
        <dc:type
           rdf:resource="http://purl.org/dc/dcmitype/StillImage" />
        <dc:title>GT Logo</dc:title>
        <dc:date>2016/04/07</dc:date>
        <dc:creator>
          <cc:Agent>
            <dc:title>Darren McCaul</dc:title>
          </cc:Agent>
        </dc:creator>
        <dc:rights>
          <cc:Agent>
            <dc:title>None</dc:title>
          </cc:Agent>
        </dc:rights>
      </cc:Work>
    </rdf:RDF>
  </metadata>
  <g
     inkscape:label="Layer 1"
     inkscape:groupmode="layer"
     id="layer1"
     transform="translate(-142.4501,-174.51436)">
    <path
       style="opacity:1;fill:#000000;fill-opacity:1;stroke:#000000;stroke-width:0.92520851"
       d="m 98.732422,0.46289062 c -54.441984,0 -98.26953137,43.82754738 -98.26953138,98.26953138 l 0,110.570308 c 0,54.44199 43.82754738,98.26954 98.26953138,98.26954 l 158.970698,0 c 54.44199,0 98.27149,-43.82755 98.27149,-98.26954 l 0,-54.42578 c -0.62027,-5e-5 -1.24107,-1.5e-4 -1.86133,0 -0.33816,2.2e-4 -0.67552,0.002 -1.01367,0 -0.0742,-6e-5 -0.14839,-0.003 -0.22266,-0.002 l -0.0156,0.006 c -0.72066,0.27067 -1.10513,0.26146 -1.2793,0.0781 -0.003,7e-5 -0.006,-8e-5 -0.01,0 -0.002,0.005 0.002,0.0146 0,0.0195 0.0219,0.046 0.0469,0.0905 0.0684,0.13671 0.0427,0.0918 -0.28377,0.17069 -0.29687,0.0703 -0.002,-0.0117 -0.002,-0.0234 -0.004,-0.0352 -0.20107,0.052 -0.52435,0.0647 -1.02734,0.12109 -1.07502,0.12047 -1.91746,-0.0558 -2.51758,-0.39453 -0.35356,-6.8e-4 -0.69358,0 -1.08789,0 l -9.33203,0 -8.10742,0 -10.39844,0 -7.10547,0 -7.77148,0 0,53.07813 c 0,31.51716 -25.37346,56.89062 -56.89063,56.89062 l -153.830076,0 c -31.517163,0 -56.890625,-25.37346 -56.890625,-56.89062 l 0,-105.11328 c 0,-31.517205 25.373462,-56.888675 56.890625,-56.888675 l 153.830076,0 c 31.51717,0 56.89063,25.37147 56.89063,56.888675 l 0,17.05664 3.03125,0 6.63086,0 13.25,0 c 4.0758,0.0815 8.15191,0.13153 12.22851,0.14648 1.89912,0.007 3.80009,0.0139 5.69922,-0.0293 1.04112,-0.002 2.08597,-0.0284 3.12695,-0.004 0.48824,0.0114 0.97494,0.0463 1.4629,0.0664 1.71784,0.0711 1.27108,0.0535 2.875,0.0879 1.22617,-0.006 2.45178,-0.0126 3.67773,-0.0215 l 0,-21.412108 c 0,-54.441984 -43.8295,-98.26953137 -98.27149,-98.26953138 l -158.970698,0 z M 351.33984,155.15039 c 0.12498,-0.0323 0.19892,-0.0875 0.23243,-0.17187 -0.003,-0.007 -0.007,-0.013 -0.01,-0.0195 -0.0263,7.5e-4 -0.0521,0.004 -0.0781,0.006 0.0247,-0.004 0.0495,-0.008 0.0742,-0.0117 -0.006,-0.0118 -0.0118,-0.0234 -0.0176,-0.0352 -0.001,-0.002 -8.3e-4,-0.004 -0.002,-0.006 -0.0598,-0.12279 -0.12365,-0.24344 -0.18554,-0.36523 -0.0215,0.005 -0.043,0.009 -0.0645,0.0137 0.0157,0.19694 0.0258,0.39381 0.0508,0.58984 z m 0.21875,-0.19727 c 0.001,0.002 0.003,0.004 0.004,0.006 0.003,-9e-5 0.007,9e-5 0.01,0 6.8e-4,-0.002 0.001,-0.006 0.002,-0.008 -0.005,8.2e-4 -0.0105,0.001 -0.0156,0.002 z"
       transform="translate(142.44981,174.51407)"
       id="rect4138"
       inkscape:export-xdpi="1199.95"
       inkscape:export-ydpi="1199.95"
       inkscape:connector-curvature="0" />
    <rect
       style="opacity:1;fill:#000000;fill-opacity:1;stroke:#000000;stroke-width:1.06775236"
       id="rect4142"
       width="361.13913"
       height="55.966728"
       x="293.1373"
       y="329.12021"
       ry="0"
       rx="0"
       inkscape:export-xdpi="1199.95"
       inkscape:export-ydpi="1199.95" />
    <rect
       style="opacity:1;fill:#000000;fill-opacity:1;stroke:#000000"
       id="rect4144"
       width="50.862068"
       height="298.27585"
       x="452.58621"
       y="382.53461"
       ry="0"
       inkscape:export-xdpi="1199.95"
       inkscape:export-ydpi="1199.95" />
    <path
       style="opacity:1;fill:none;fill-opacity:1;stroke:none"
       d="m 303.61523,117.04883 0,2.84961 3.40821,0 6.63086,0 13.25,0 c 4.0758,0.0815 8.15191,0.13153 12.22851,0.14648 1.89912,0.007 3.80009,0.0139 5.69922,-0.0293 1.04112,-0.002 2.08597,-0.0284 3.12695,-0.004 0.48824,0.0114 0.97494,0.0463 1.4629,0.0664 1.71784,0.0711 1.27108,0.0535 2.875,0.0879 1.36098,-0.007 2.72128,-0.0152 4.08203,-0.0234 l 0,-3.09375 -26.38086,0 -26.38282,0 z"
       transform="translate(142.44981,174.51407)"
       id="path4279"
       inkscape:export-xdpi="1199.95"
       inkscape:export-ydpi="1199.95"
       inkscape:connector-curvature="0" />
    <path
       style="opacity:1;fill:none;fill-opacity:1;stroke:none"
       d="m 303.61523,117.04883 0,2.84961 3.40821,0 6.63086,0 13.25,0 c 4.0758,0.0815 8.15191,0.13153 12.22851,0.14648 1.89912,0.007 3.80009,0.0139 5.69922,-0.0293 1.04112,-0.002 2.08597,-0.0284 3.12695,-0.004 0.48824,0.0114 0.97494,0.0463 1.4629,0.0664 1.71784,0.0711 1.27108,0.0535 2.875,0.0879 1.36098,-0.007 2.72128,-0.0152 4.08203,-0.0234 l 0,-3.09375 -26.38086,0 -26.38282,0 z"
       transform="translate(142.44981,174.51407)"
       id="path4281"
       inkscape:export-xdpi="1199.95"
       inkscape:export-ydpi="1199.95"
       inkscape:connector-curvature="0" />
    <path
       style="opacity:1;fill:none;fill-opacity:1;stroke:none"
       d="m 205.27148,57.808594 0,48.111326 -0.002,0 0,48.11133 92.23633,0 c -1.42732,-1.29625 -0.55219,-3.62891 2.65039,-3.62891 l 0.67187,0 c -0.0532,-0.67358 0.0226,-1.38347 -0.0391,-2.05468 l 1.65039,-0.89454 c -0.0701,0.0113 -0.27782,0.0589 -0.21093,0.0352 0.13386,-0.0475 0.27963,-0.0616 0.41406,-0.10742 0.0533,-0.0182 -0.21765,0.05 -0.16797,0.0234 0.13888,-0.0743 0.28864,-0.12807 0.43555,-0.18555 0.11239,-0.89902 0.14067,-1.82388 0.40429,-2.67578 -0.0684,-0.15211 -0.1392,-0.27905 -0.20703,-0.45508 -0.007,-0.0188 -0.004,-0.0442 -0.01,-0.0644 -0.0154,-0.004 -0.0316,-0.004 -0.0469,-0.008 -0.1402,-0.0367 -0.71157,-0.30187 -0.35547,-0.13867 -0.46498,-0.51463 -1.22628,-0.87255 -1.39648,-1.54492 -0.13586,-0.53669 -0.10952,-0.98537 0.0254,-1.36719 -0.70392,0.23961 -0.89668,0.70355 -0.78125,-1.86523 -0.43053,-6.6e-4 -0.8605,-0.003 -1.29102,0 -2.93717,-0.008 -2.31458,-2.6004 -1.29883,-4.12891 -0.6768,3.1e-4 -1.35447,0.003 -2.03124,0.002 -0.29137,-0.0306 -0.59928,0.0457 -0.88868,0.002 -1.34857,-0.20511 -2.03247,-0.40279 -2.40234,-2.42773 -0.11059,-0.60544 0.50751,-1.12115 0.76172,-1.68165 0.46246,-0.25176 0.90495,-0.54594 1.38867,-0.7539 0.95482,-0.41051 2.21299,-0.68943 3.3418,-0.88477 -0.0212,-0.45269 -0.0288,-0.90498 -0.004,-1.35742 -0.0455,0.004 -0.0912,0.006 -0.13672,0.01 -0.31616,0.22487 -0.56368,0.61551 -0.94726,0.67382 -0.30905,0.047 0.42927,-0.46147 0.68945,-0.63476 0.24532,-0.16339 0.52331,-0.28005 0.80664,-0.36133 0.0499,-0.0143 0.107,-0.0236 0.1582,-0.0371 -0.23576,-0.0118 -0.47148,-0.0146 -0.70703,-0.0312 -3.68464,-0.26009 -4.04844,-3.39261 -1.50976,-4.25195 -1.02087,-1.32507 -0.0565,-3.33789 2.91796,-3.33789 l 1.25,0 0.81055,0 5.57227,0 6.63086,0 13.25,0 c 4.0758,0.0815 8.15191,0.13153 12.22851,0.14648 1.89912,0.007 3.80009,0.0139 5.69922,-0.0293 1.04112,-0.002 2.08597,-0.0284 3.12695,-0.004 0.48824,0.0114 0.97494,0.0463 1.4629,0.0664 1.71784,0.0711 1.27108,0.0535 2.875,0.0879 1.37921,-0.007 2.75773,-0.0153 4.13671,-0.0234 l 0.006,-3.15235 0.006,3.15235 c 0.65043,-0.004 1.3006,-0.0143 1.95117,-0.0117 0.77072,0.003 1.54162,-4.3e-4 2.3125,0 0.78984,-0.61351 0.74754,-0.61431 2.25391,-0.55274 0.0227,9.3e-4 -0.0456,-0.009 -0.0684,-0.01 -0.0708,-0.002 -0.14203,-6e-5 -0.21289,0 0.31139,-0.0289 0.16919,-0.0203 0.42578,-0.0293 1.03131,-0.0361 1.33111,0.20913 1.26367,0.59375 0.0423,-6e-5 0.0847,6e-5 0.12696,0 0.33547,2.4e-4 0.67039,1.4e-4 1.00586,0 0.34162,-1.3e-4 0.68377,-5e-5 1.02539,0 0.92433,1.3e-4 1.64494,0.20131 2.18359,0.50977 0.49108,0.0393 0.98177,0.088 1.47461,0.10937 0.46916,-0.0125 0.93592,-0.045 1.40625,-0.0351 0.17145,0.004 0.34219,0.006 0.51367,0.006 4.43055,-0.003 4.43055,4.47705 0,4.47461 -0.20799,-1.1e-4 -0.41517,-8.6e-4 -0.62304,-0.006 -0.50404,-0.0159 -1.00315,0.0609 -1.50782,0.0312 -0.36367,-0.0183 -0.5077,-0.0359 -0.66015,-0.0449 -0.0116,0.26441 -0.0307,0.52906 -0.0332,0.79297 -0.0168,1.78561 -0.33671,0.73312 -0.70703,-0.8457 -0.13479,-0.0153 -0.26887,-0.0409 -0.40429,-0.0469 -0.26052,-0.0114 -0.52191,-0.005 -0.78321,0 0.008,0.29198 0.0217,0.58369 0.0449,0.875 0.001,0.0165 0.0119,0.0251 0.0215,0.0352 0.0927,0.007 0.18529,0.0131 0.27734,0.0254 0.009,0.001 -0.003,0.0274 -0.0117,0.0254 -0.0818,-0.0167 -0.21694,-3e-5 -0.26562,-0.0508 -0.19259,-0.0139 -0.3854,-0.0234 -0.57617,-0.0547 -0.64182,-0.002 -0.77285,0.008 -1.44922,-0.0391 -0.20475,-0.0144 -0.4094,-0.0387 -0.61328,-0.0625 -0.10248,-0.0119 -0.20165,-0.0397 -0.30469,-0.0449 -0.36465,-0.0183 -0.73096,0.0145 -1.0957,0 l -2.46485,0 -0.041,0 c 0.35865,2.34008 0.60794,2.95208 -0.16602,2.94336 -0.0176,-1e-5 -0.0352,-1e-5 -0.0527,0 -0.0191,0.13462 -0.27225,0 -0.40821,0 -0.30418,-1e-5 -0.3185,0 -0.39843,0 -0.80677,-0.003 -1.61319,0.002 -2.41993,0.008 -8e-4,0.0365 -0.001,0.0729 -0.002,0.10938 1.19588,-8.8e-4 2.39201,0.003 3.58789,0 0.18429,-0.003 0.50565,-0.18821 0.55274,-0.01 10e-4,0.005 0.003,0.009 0.004,0.0137 1.05135,-0.11873 0.96373,0.20919 0.64063,2.11133 0.65991,1.94063 0.87807,2.18566 -0.35157,2.35938 -0.0333,0.1389 -0.22161,0.10707 -0.42382,0.0605 -0.38905,0.0503 -0.402,0.0558 -0.77735,0.0508 -0.32608,7.1e-4 -0.6524,0.009 -0.97851,0.0156 -0.036,0.1669 -0.0789,0.3776 -0.1211,0.58008 0.41954,2.0148 0.58398,2.2329 -0.40625,2.24023 -0.003,0.0207 -0.0224,0.0234 -0.0332,0.0352 0.3669,0.30535 0.70664,0.64409 1.06055,0.96484 -0.1135,0.44141 -0.17263,0.90555 -0.24805,1.36328 0.0221,0.004 0.0443,0.008 0.0664,0.0117 0.23912,0.0447 0.49026,0.0764 0.70507,0.18945 0.15084,0.005 0.43374,-0.12251 0.44336,0.0254 0.0967,1.4864 0.20653,3.02015 -0.15625,4.46484 -0.057,0.22678 -0.36512,0.12391 -0.65429,0.0293 -0.17921,0.0179 -0.35745,0.0366 -0.53711,0.0488 -0.95214,0.0647 -1.9042,0.0535 -2.85156,-0.0488 0.40861,0.16715 0.8072,0.35648 1.21289,0.53125 0.14242,0.89972 0.76523,1.85312 0.42773,2.69921 -0.0466,0.11676 -0.10212,0.211 -0.15625,0.30664 0.10739,0.17706 0.26241,0.44695 0.35156,0.59376 0.4612,0.10752 0.91322,0.26262 1.3418,0.44726 0.76952,0.33153 1.3304,0.74461 1.70898,1.18359 0.10815,0.0479 0.21112,0.10271 0.30469,0.16993 0.14379,0.0816 0.26134,0.16209 0.27344,0.22656 4.7e-4,0.003 -4.3e-4,0.005 0,0.008 0.0937,0.10338 0.17349,0.2188 0.24023,0.34375 0.0666,0.0642 0.0478,0.0457 0.14649,0.14063 -0.0915,-0.0822 -0.0982,-0.0865 -0.13867,-0.1211 0.0155,0.0298 0.0231,0.0648 0.0371,0.0957 0.15904,0.19001 0.30782,0.3848 0.31445,0.49023 0.0495,0.78599 -0.076,2.97793 -0.49414,2.31055 -0.0814,-0.12991 -0.13187,-0.26803 -0.16992,-0.41016 -0.0777,0.12174 -0.16683,0.2444 -0.26368,0.36719 0.42707,0.85207 0.41525,1.40732 -0.95898,1.00781 -0.0593,0.1079 -0.12081,0.21226 -0.21094,0.28711 l 124.27539,0 0,-48.11133 0,-48.111326 -68.72265,0 c -37.79768,0 -68.72266,0.03425 -68.72266,0.07617 0,0.04192 0.3649,0.929548 0.81055,1.972656 3.59601,8.416904 6.00598,17.406624 7.125,26.570312 0.67667,5.541321 0.77534,8.067161 0.77734,19.874998 l 0.002,9.80469 -26.5,0 -26.49804,0 -0.002,-7.21289 c -6.3e-4,-3.96762 -0.0543,-8.11558 -0.11914,-9.216798 -0.45776,-7.774073 -2.31645,-14.87183 -5.70507,-21.789062 -3.60436,-7.357497 -8.8448,-13.894184 -15.26172,-19.039063 l -1.29688,-1.041015 -37.92187,0 -37.91993,0 z m 95.07618,80.998046 c -0.56772,0.0888 -0.27476,0.15196 0,0 z m 60.17187,0.0332 c -0.0133,0.002 -0.0138,0.0115 -0.0234,0.0156 0.0495,-0.004 0.0989,-0.0104 0.14844,-0.0137 -0.0436,-0.004 -0.0893,-0.007 -0.125,-0.002 z m 0.29883,4.45704 c -0.0152,0.004 -0.0974,0.0128 -0.13867,0.0195 0.0322,0.0488 0.16438,-0.0126 0.24023,-0.0117 -0.0694,-0.0132 -0.0706,-0.0151 -0.10156,-0.008 z m -57.5625,0.75585 c 0.0315,0.0472 0.10575,0.12509 0.16797,0.19336 0.0201,-0.0514 0.0382,-0.10356 0.0605,-0.15429 -0.0762,-0.0128 -0.15302,-0.0231 -0.22852,-0.0391 z"
       transform="translate(142.44981,174.51407)"
       id="path4283"
       inkscape:export-xdpi="1199.95"
       inkscape:export-ydpi="1199.95"
       inkscape:connector-curvature="0" />
    <path
       style="opacity:1;fill:none;fill-opacity:1;stroke:none"
       d="m 303.61523,117.04883 0,2.84961 3.40821,0 6.63086,0 13.25,0 c 4.0758,0.0815 8.15191,0.13153 12.22851,0.14648 1.89912,0.007 3.80009,0.0139 5.69922,-0.0293 1.04112,-0.002 2.08597,-0.0284 3.12695,-0.004 0.48824,0.0114 0.97494,0.0463 1.4629,0.0664 1.71784,0.0711 1.27108,0.0535 2.875,0.0879 1.36098,-0.007 2.72128,-0.0152 4.08203,-0.0234 l 0,-3.09375 -26.38086,0 -26.38282,0 z"
       transform="translate(142.44981,174.51407)"
       id="path4285"
       inkscape:export-xdpi="1199.95"
       inkscape:export-ydpi="1199.95"
       inkscape:connector-curvature="0" />
  </g>
</svg>
