<?xml version="1.0" encoding="UTF-8" standalone="no"?>
<!-- Created with Inkscape (http://www.inkscape.org/) -->

<svg
   xmlns:dc="http://purl.org/dc/elements/1.1/"
   xmlns:cc="http://creativecommons.org/ns#"
   xmlns:rdf="http://www.w3.org/1999/02/22-rdf-syntax-ns#"
   xmlns:svg="http://www.w3.org/2000/svg"
   xmlns="http://www.w3.org/2000/svg"
   xmlns:sodipodi="http://sodipodi.sourceforge.net/DTD/sodipodi-0.dtd"
   xmlns:inkscape="http://www.inkscape.org/namespaces/inkscape"
   width="406.62369mm"
   height="143.02921mm"
   viewBox="0 0 1440.7926 506.79639"
   id="svg2"
   version="1.1"
   inkscape:version="0.91 r13725"
   sodipodi:docname="GT_FieldResearch.svg"
   inkscape:export-filename="D:\mtustuff\GT_FieldResearch.png"
   inkscape:export-xdpi="1200"
   inkscape:export-ydpi="1200">
  <title
     id="title4698">GT Research Logo</title>
  <defs
     id="defs4" />
  <sodipodi:namedview
     id="base"
     pagecolor="#ffffff"
     bordercolor="#666666"
     borderopacity="1.0"
     inkscape:pageopacity="0.0"
     inkscape:pageshadow="2"
     inkscape:zoom="1.0603231"
     inkscape:cx="190.48623"
     inkscape:cy="307.38016"
     inkscape:document-units="px"
     inkscape:current-layer="layer1"
     showgrid="false"
     fit-margin-top="0"
     fit-margin-left="0"
     fit-margin-right="0"
     fit-margin-bottom="0"
     inkscape:window-width="1920"
     inkscape:window-height="1017"
     inkscape:window-x="-8"
     inkscape:window-y="-8"
     inkscape:window-maximized="1" />
  <metadata
     id="metadata7">
    <rdf:RDF>
      <cc:Work
         rdf:about="">
        <dc:format>image/svg+xml</dc:format>
        <dc:type
           rdf:resource="http://purl.org/dc/dcmitype/StillImage" />
        <dc:title>GT Research Logo</dc:title>
        <dc:date>2016/04/07</dc:date>
        <dc:creator>
          <cc:Agent>
            <dc:title>Darren McCaul</dc:title>
          </cc:Agent>
        </dc:creator>
        <dc:rights>
          <cc:Agent>
            <dc:title>None</dc:title>
          </cc:Agent>
        </dc:rights>
      </cc:Work>
    </rdf:RDF>
  </metadata>
  <g
     inkscape:label="Layer 1"
     inkscape:groupmode="layer"
     id="layer1"
     transform="translate(-142.44981,-174.51407)">
    <path
       style="opacity:1;fill:#000000;fill-opacity:1;stroke:#000000;stroke-width:0.92520851"
       d="M 98.732422 0.46289062 C 44.290438 0.46289062 0.46289063 44.290438 0.46289062 98.732422 L 0.46289062 209.30273 C 0.46289062 263.74472 44.290438 307.57227 98.732422 307.57227 L 257.70312 307.57227 C 312.14511 307.57227 355.97461 263.74472 355.97461 209.30273 L 355.97461 154.87695 C 355.35434 154.8769 354.73354 154.8768 354.11328 154.87695 C 353.77512 154.87717 353.43776 154.87895 353.09961 154.87695 C 353.02541 154.87689 352.95122 154.87364 352.87695 154.875 L 352.86133 154.88086 C 352.14067 155.15153 351.7562 155.14232 351.58203 154.95898 C 351.57876 154.95905 351.57553 154.9589 351.57227 154.95898 C 351.57059 154.96416 351.57422 154.97359 351.57227 154.97852 C 351.59419 155.02456 351.61912 155.06898 351.64062 155.11523 C 351.68331 155.20703 351.35685 155.28592 351.34375 155.18555 C 351.34222 155.17384 351.34134 155.1621 351.33984 155.15039 C 351.13877 155.20239 350.81549 155.21512 350.3125 155.27148 C 349.23748 155.39195 348.39504 155.2157 347.79492 154.87695 C 347.44136 154.87627 347.10134 154.87695 346.70703 154.87695 L 337.375 154.87695 L 329.26758 154.87695 L 318.86914 154.87695 L 311.76367 154.87695 L 303.99219 154.87695 L 303.99219 207.95508 C 303.99219 239.47224 278.61873 264.8457 247.10156 264.8457 L 93.271484 264.8457 C 61.754321 264.8457 36.380859 239.47224 36.380859 207.95508 L 36.380859 102.8418 C 36.380859 71.324595 61.754321 45.953125 93.271484 45.953125 L 247.10156 45.953125 C 278.61873 45.953125 303.99219 71.324595 303.99219 102.8418 L 303.99219 119.89844 L 307.02344 119.89844 L 313.6543 119.89844 L 326.9043 119.89844 C 330.9801 119.97994 335.05621 120.02997 339.13281 120.04492 C 341.03193 120.05192 342.9329 120.05885 344.83203 120.01562 C 345.87315 120.01364 346.918 119.98722 347.95898 120.01172 C 348.44722 120.02312 348.93392 120.05805 349.42188 120.07812 C 351.13972 120.14925 350.69296 120.13162 352.29688 120.16602 C 353.52305 120.15999 354.74866 120.1534 355.97461 120.14453 L 355.97461 98.732422 C 355.97461 44.290438 312.14511 0.46289063 257.70312 0.46289062 L 98.732422 0.46289062 z M 351.33984 155.15039 C 351.46482 155.11807 351.53876 155.06292 351.57227 154.97852 C 351.56913 154.97194 351.56564 154.96556 351.5625 154.95898 C 351.53624 154.95973 351.51035 154.96282 351.48438 154.96484 C 351.5091 154.96096 351.53387 154.95703 351.55859 154.95312 C 351.55294 154.9413 351.54675 154.92976 351.54102 154.91797 C 351.53986 154.91626 351.54019 154.91384 351.53906 154.91211 C 351.47921 154.78932 351.41541 154.66867 351.35352 154.54688 C 351.33206 154.5516 351.31056 154.556 351.28906 154.56055 C 351.3048 154.75749 351.31482 154.95436 351.33984 155.15039 z M 351.55859 154.95312 C 351.5596 154.95523 351.56149 154.95688 351.5625 154.95898 C 351.56576 154.95889 351.569 154.95907 351.57227 154.95898 C 351.57295 154.95687 351.57358 154.95333 351.57422 154.95117 C 351.56904 154.95199 351.56377 154.95231 351.55859 154.95312 z "
       transform="translate(142.44981,174.51407)"
       id="rect4138" />
    <rect
       style="opacity:1;fill:#000000;fill-opacity:1;stroke:#000000;stroke-width:1.06775236"
       id="rect4142"
       width="361.13913"
       height="55.966728"
       x="293.1373"
       y="329.12021"
       ry="0"
       rx="0" />
    <rect
       style="opacity:1;fill:#000000;fill-opacity:1;stroke:#000000"
       id="rect4144"
       width="50.862068"
       height="298.27585"
       x="452.58621"
       y="382.53461"
       ry="0" />
    <flowRoot
       xml:space="preserve"
       id="flowRoot4828"
       style="font-style:normal;font-variant:normal;font-weight:bold;font-stretch:normal;font-size:180px;line-height:125%;font-family:sans-serif;-inkscape-font-specification:'sans-serif Bold';letter-spacing:0px;word-spacing:0px;fill:#000000;fill-opacity:1;stroke:none;stroke-width:1px;stroke-linecap:butt;stroke-linejoin:miter;stroke-opacity:1"
       transform="translate(60.482603,77.792749)"><flowRegion
         id="flowRegion4830"><rect
           id="rect4832"
           width="942.98724"
           height="468.52127"
           x="606.06061"
           y="122.958"
           style="font-style:normal;font-variant:normal;font-weight:bold;font-stretch:normal;font-size:180px;font-family:sans-serif;-inkscape-font-specification:'sans-serif Bold'" /></flowRegion><flowPara
         id="flowPara4834">Field Research</flowPara></flowRoot>    <path
       style="opacity:1;fill:none;fill-opacity:1;stroke:none"
       d="M 303.61523 117.04883 L 303.61523 119.89844 L 307.02344 119.89844 L 313.6543 119.89844 L 326.9043 119.89844 C 330.9801 119.97994 335.05621 120.02997 339.13281 120.04492 C 341.03193 120.05192 342.9329 120.05885 344.83203 120.01562 C 345.87315 120.01364 346.918 119.98722 347.95898 120.01172 C 348.44722 120.02312 348.93392 120.05801 349.42188 120.07812 C 351.13972 120.14925 350.69296 120.13162 352.29688 120.16602 C 353.65786 120.15932 355.01816 120.15084 356.37891 120.14258 L 356.37891 117.04883 L 329.99805 117.04883 L 303.61523 117.04883 z "
       transform="translate(142.44981,174.51407)"
       id="path4279" />
    <path
       style="opacity:1;fill:none;fill-opacity:1;stroke:none"
       d="M 303.61523 117.04883 L 303.61523 119.89844 L 307.02344 119.89844 L 313.6543 119.89844 L 326.9043 119.89844 C 330.9801 119.97994 335.05621 120.02997 339.13281 120.04492 C 341.03193 120.05192 342.9329 120.05885 344.83203 120.01562 C 345.87315 120.01364 346.918 119.98722 347.95898 120.01172 C 348.44722 120.02312 348.93392 120.05801 349.42188 120.07812 C 351.13972 120.14925 350.69296 120.13162 352.29688 120.16602 C 353.65786 120.15932 355.01816 120.15084 356.37891 120.14258 L 356.37891 117.04883 L 329.99805 117.04883 L 303.61523 117.04883 z "
       transform="translate(142.44981,174.51407)"
       id="path4281" />
    <path
       style="opacity:1;fill:none;fill-opacity:1;stroke:none"
       d="M 205.27148 57.808594 L 205.27148 105.91992 L 205.26953 105.91992 L 205.26953 154.03125 L 297.50586 154.03125 C 296.07854 152.735 296.95367 150.40234 300.15625 150.40234 L 300.82812 150.40234 C 300.77493 149.72876 300.8507 149.01887 300.78906 148.34766 L 302.43945 147.45312 C 302.36935 147.46443 302.16163 147.51198 302.22852 147.48828 C 302.36238 147.44078 302.50815 147.42664 302.64258 147.38086 C 302.69588 147.36266 302.42493 147.4309 302.47461 147.4043 C 302.61349 147.33003 302.76325 147.27623 302.91016 147.21875 C 303.02255 146.31973 303.05083 145.39487 303.31445 144.54297 C 303.24608 144.39086 303.17525 144.26392 303.10742 144.08789 C 303.10016 144.06905 303.10307 144.04367 303.09766 144.02344 C 303.08231 144.01961 303.06608 144.01963 303.05078 144.01562 C 302.91058 143.97893 302.33921 143.71375 302.69531 143.87695 C 302.23033 143.36232 301.46903 143.0044 301.29883 142.33203 C 301.16297 141.79534 301.18931 141.34666 301.32422 140.96484 C 300.6203 141.20445 300.42754 141.66839 300.54297 139.09961 C 300.11244 139.09895 299.68247 139.09668 299.25195 139.09961 C 296.31478 139.0918 296.93737 136.49921 297.95312 134.9707 C 297.27632 134.97101 296.59865 134.97328 295.92188 134.97266 C 295.63051 134.94206 295.3226 135.01841 295.0332 134.97461 C 293.68463 134.7695 293.00073 134.57182 292.63086 132.54688 C 292.52027 131.94144 293.13837 131.42573 293.39258 130.86523 C 293.85504 130.61347 294.29753 130.31929 294.78125 130.11133 C 295.73607 129.70082 296.99424 129.4219 298.12305 129.22656 C 298.1018 128.77387 298.09426 128.32158 298.11914 127.86914 C 298.07361 127.87264 298.02795 127.87541 297.98242 127.87891 C 297.66626 128.10378 297.41874 128.49442 297.03516 128.55273 C 296.72611 128.59973 297.46443 128.09126 297.72461 127.91797 C 297.96993 127.75458 298.24792 127.63792 298.53125 127.55664 C 298.58118 127.54232 298.63825 127.53304 298.68945 127.51953 C 298.45369 127.50777 298.21797 127.50494 297.98242 127.48828 C 294.29778 127.22819 293.93398 124.09567 296.47266 123.23633 C 295.45179 121.91126 296.41616 119.89844 299.39062 119.89844 L 300.64062 119.89844 L 301.45117 119.89844 L 307.02344 119.89844 L 313.6543 119.89844 L 326.9043 119.89844 C 330.9801 119.97994 335.05621 120.02997 339.13281 120.04492 C 341.03193 120.05192 342.9329 120.05885 344.83203 120.01562 C 345.87315 120.01364 346.918 119.98722 347.95898 120.01172 C 348.44722 120.02312 348.93392 120.05805 349.42188 120.07812 C 351.13972 120.14925 350.69296 120.13162 352.29688 120.16602 C 353.67609 120.15923 355.05461 120.1507 356.43359 120.14258 L 356.43945 116.99023 L 356.44531 120.14258 C 357.09574 120.13877 357.74591 120.1283 358.39648 120.13086 C 359.1672 120.13427 359.9381 120.13043 360.70898 120.13086 C 361.49882 119.51735 361.45652 119.51655 362.96289 119.57812 C 362.98559 119.57905 362.91733 119.56906 362.89453 119.56836 C 362.82373 119.56636 362.7525 119.5683 362.68164 119.56836 C 362.99303 119.53946 362.85083 119.54806 363.10742 119.53906 C 364.13873 119.503 364.43853 119.74819 364.37109 120.13281 C 364.41341 120.13275 364.45574 120.13287 364.49805 120.13281 C 364.83352 120.13305 365.16844 120.13295 365.50391 120.13281 C 365.84553 120.13268 366.18768 120.13276 366.5293 120.13281 C 367.45363 120.13294 368.17424 120.33412 368.71289 120.64258 C 369.20397 120.68189 369.69466 120.73061 370.1875 120.75195 C 370.65666 120.73945 371.12342 120.7069 371.59375 120.7168 C 371.7652 120.7208 371.93594 120.72266 372.10742 120.72266 C 376.53797 120.71966 376.53797 125.19971 372.10742 125.19727 C 371.89943 125.19716 371.69225 125.19641 371.48438 125.19141 C 370.98034 125.17551 370.48123 125.25226 369.97656 125.22266 C 369.61289 125.20441 369.46886 125.18672 369.31641 125.17773 C 369.30477 125.44214 369.28569 125.70679 369.2832 125.9707 C 369.26644 127.75631 368.94649 126.70382 368.57617 125.125 C 368.44138 125.10971 368.3073 125.08409 368.17188 125.07812 C 367.91136 125.06669 367.64997 125.07347 367.38867 125.07812 C 367.39714 125.3701 367.41041 125.66181 367.43359 125.95312 C 367.43492 125.96963 367.44544 125.97823 367.45508 125.98828 C 367.54775 125.99496 367.64037 126.00139 367.73242 126.01367 C 367.74162 126.01487 367.7297 126.04106 367.7207 126.03906 C 367.63888 126.02237 367.50376 126.03903 367.45508 125.98828 C 367.26249 125.97441 367.06968 125.96492 366.87891 125.93359 C 366.23709 125.93159 366.10606 125.94193 365.42969 125.89453 C 365.22494 125.88013 365.02029 125.85583 364.81641 125.83203 C 364.71393 125.82013 364.61476 125.79231 364.51172 125.78711 C 364.14707 125.76881 363.78076 125.80161 363.41602 125.78711 L 360.95117 125.78711 L 360.91016 125.78711 C 361.26881 128.12719 361.5181 128.73919 360.74414 128.73047 C 360.72656 128.73046 360.70899 128.73046 360.69141 128.73047 C 360.67231 128.86509 360.41916 128.73047 360.2832 128.73047 C 359.97902 128.73046 359.9647 128.73047 359.88477 128.73047 C 359.078 128.72761 358.27158 128.73288 357.46484 128.73828 C 357.46404 128.77474 357.46372 128.8112 357.46289 128.84766 C 358.65877 128.84678 359.8549 128.85032 361.05078 128.84766 C 361.23507 128.84466 361.55643 128.65945 361.60352 128.83789 C 361.60488 128.84304 361.60606 128.84642 361.60742 128.85156 C 362.65877 128.73283 362.57115 129.06075 362.24805 130.96289 C 362.90796 132.90352 363.12612 133.14855 361.89648 133.32227 C 361.86322 133.46117 361.67487 133.42934 361.47266 133.38281 C 361.08361 133.43308 361.07066 133.43864 360.69531 133.43359 C 360.36923 133.4343 360.04291 133.44278 359.7168 133.44922 C 359.68082 133.61612 359.63788 133.82682 359.5957 134.0293 C 360.01524 136.0441 360.17968 136.2622 359.18945 136.26953 C 359.18627 136.29027 359.1671 136.29289 359.15625 136.30469 C 359.52315 136.61004 359.86289 136.94878 360.2168 137.26953 C 360.1033 137.71094 360.04417 138.17508 359.96875 138.63281 C 359.99085 138.63692 360.01306 138.6404 360.03516 138.64453 C 360.27428 138.68921 360.52542 138.72094 360.74023 138.83398 C 360.89107 138.83906 361.17397 138.71147 361.18359 138.85938 C 361.28029 140.34578 361.39012 141.87953 361.02734 143.32422 C 360.97038 143.551 360.66222 143.44813 360.37305 143.35352 C 360.19384 143.37147 360.0156 143.39013 359.83594 143.40234 C 358.8838 143.46705 357.93174 143.45582 356.98438 143.35352 C 357.39299 143.52067 357.79158 143.71 358.19727 143.88477 C 358.33969 144.78449 358.9625 145.73789 358.625 146.58398 C 358.57843 146.70074 358.52288 146.79498 358.46875 146.89062 C 358.57614 147.06768 358.73116 147.33757 358.82031 147.48438 C 359.28151 147.5919 359.73353 147.747 360.16211 147.93164 C 360.93163 148.26317 361.49251 148.67625 361.87109 149.11523 C 361.97924 149.16311 362.08221 149.21794 362.17578 149.28516 C 362.31957 149.36673 362.43712 149.44725 362.44922 149.51172 C 362.44969 149.51425 362.44879 149.51699 362.44922 149.51953 C 362.54289 149.62291 362.62271 149.73833 362.68945 149.86328 C 362.75601 149.92749 362.73722 149.90897 362.83594 150.00391 C 362.74445 149.92167 362.73776 149.91738 362.69727 149.88281 C 362.71276 149.91266 362.72041 149.94758 362.73438 149.97852 C 362.89342 150.16853 363.0422 150.36332 363.04883 150.46875 C 363.09829 151.25474 362.97281 153.44668 362.55469 152.7793 C 362.4733 152.64939 362.42282 152.51127 362.38477 152.36914 C 362.30709 152.49088 362.21794 152.61354 362.12109 152.73633 C 362.54816 153.5884 362.53634 154.14365 361.16211 153.74414 C 361.10276 153.85204 361.0413 153.9564 360.95117 154.03125 L 485.22656 154.03125 L 485.22656 105.91992 L 485.22656 57.808594 L 416.50391 57.808594 C 378.70623 57.808594 347.78125 57.842846 347.78125 57.884766 C 347.78125 57.926682 348.14615 58.814314 348.5918 59.857422 C 352.18781 68.274326 354.59778 77.264046 355.7168 86.427734 C 356.39347 91.969055 356.49214 94.494895 356.49414 106.30273 L 356.49609 116.10742 L 329.99609 116.10742 L 303.49805 116.10742 L 303.49609 108.89453 C 303.49546 104.92691 303.44175 100.77895 303.37695 99.677734 C 302.91919 91.903661 301.0605 84.805904 297.67188 77.888672 C 294.06752 70.531175 288.82708 63.994488 282.41016 58.849609 L 281.11328 57.808594 L 243.19141 57.808594 L 205.27148 57.808594 z M 300.34766 138.80664 C 299.77994 138.89541 300.0729 138.9586 300.34766 138.80664 z M 360.51953 138.83984 C 360.50626 138.84163 360.5057 138.85131 360.49609 138.85547 C 360.54562 138.85141 360.59497 138.8451 360.64453 138.8418 C 360.60089 138.83745 360.55527 138.83504 360.51953 138.83984 z M 360.81836 143.29688 C 360.8032 143.30045 360.72092 143.30967 360.67969 143.31641 C 360.71189 143.36519 360.84407 143.30378 360.91992 143.30469 C 360.85049 143.29149 360.84934 143.28958 360.81836 143.29688 z M 303.25586 144.05273 C 303.28732 144.09995 303.36161 144.17782 303.42383 144.24609 C 303.44397 144.19466 303.46199 144.14253 303.48438 144.0918 C 303.4082 144.07896 303.33136 144.06874 303.25586 144.05273 z "
       transform="translate(142.44981,174.51407)"
       id="path4283" />
    <path
       style="opacity:1;fill:none;fill-opacity:1;stroke:none"
       d="M 303.61523 117.04883 L 303.61523 119.89844 L 307.02344 119.89844 L 313.6543 119.89844 L 326.9043 119.89844 C 330.9801 119.97994 335.05621 120.02997 339.13281 120.04492 C 341.03193 120.05192 342.9329 120.05885 344.83203 120.01562 C 345.87315 120.01364 346.918 119.98722 347.95898 120.01172 C 348.44722 120.02312 348.93392 120.05801 349.42188 120.07812 C 351.13972 120.14925 350.69296 120.13162 352.29688 120.16602 C 353.65786 120.15932 355.01816 120.15084 356.37891 120.14258 L 356.37891 117.04883 L 329.99805 117.04883 L 303.61523 117.04883 z "
       transform="translate(142.44981,174.51407)"
       id="path4285" />
  </g>
</svg>
