<?xml version="1.0" encoding="UTF-8" standalone="no"?>
<!-- Created with Inkscape (http://www.inkscape.org/) -->

<svg
   xmlns:dc="http://purl.org/dc/elements/1.1/"
   xmlns:cc="http://creativecommons.org/ns#"
   xmlns:rdf="http://www.w3.org/1999/02/22-rdf-syntax-ns#"
   xmlns:svg="http://www.w3.org/2000/svg"
   xmlns="http://www.w3.org/2000/svg"
   version="1.2"
   width="506.48401"
   height="84.987999"
   viewBox="0 0 506.484 84.988"
   id="Layer_1"
   xml:space="preserve"
   style="overflow:visible"><metadata
   id="metadata3115"><rdf:RDF><cc:Work
       rdf:about=""><dc:format>image/svg+xml</dc:format><dc:type
         rdf:resource="http://purl.org/dc/dcmitype/StillImage" /><dc:title></dc:title></cc:Work></rdf:RDF></metadata><defs
   id="defs3113" />
<g
   id="g3079">
	<polygon
   points="487.454,61.521 506.484,23.438 375.533,23.438 375.533,0 291.483,0 291.483,23.438 17.478,23.438 0,61.521 291.483,61.521 291.483,84.988 375.533,84.988 375.533,61.521 "
   id="polygon3081"
   style="fill:#ffffff;stroke:#000000;stroke-width:0;stroke-miterlimit:10" />
	<polygon
   points="294,82.473 373.016,82.473 373.016,59.006 485.897,59.006 502.412,25.955 373.016,25.955 373.016,2.516 294,2.516 294,25.955 19.092,25.955 3.924,59.006 294,59.006 "
   id="polygon3083"
   style="stroke:#000000;stroke-width:0;stroke-miterlimit:10" />
	<polyline
   stroke-miterlimit="10"
   points="373.016,28.47 498.341,28.47    484.341,56.488 373.016,56.488  "
   id="polyline3085"
   stroke-width="0"
   stroke="#000000"
   fill="#FFFFFF"
   style="fill:#ffffff;stroke:#000000;stroke-width:0;stroke-miterlimit:10" />
	<polygon
   points="294,56.488 7.848,56.488 20.707,28.47 294,28.47 "
   id="polygon3087"
   style="fill:#ffffff;stroke:#000000;stroke-width:0;stroke-miterlimit:10" />
	<polygon
   points="294,54.418 11.077,54.418 22.035,30.54 294,30.54 "
   id="polygon3089"
   style="fill:#ffbf00;stroke:#000000;stroke-width:0;stroke-miterlimit:10" />
	<polyline
   stroke-miterlimit="10"
   points="373.016,30.54 494.993,30.54    483.061,54.418 373.016,54.418  "
   id="polyline3091"
   stroke-width="0"
   stroke="#000000"
   fill="#FFBF00"
   style="fill:#ffbf00;stroke:#000000;stroke-width:0;stroke-miterlimit:10" />
	
		<rect
   width="73.980003"
   height="74.925003"
   x="296.50201"
   y="4.9699998"
   id="rect3093"
   style="fill:#ffffff;stroke:#000000;stroke-width:0;stroke-miterlimit:10" />
	<path
   d="m 368.149,70.958 c 0,3.609 -2.91,6.545 -6.521,6.578 -0.021,0 -0.041,0.001 -0.062,0.001 l 0.001,-0.002 -19.096,0.002 25.68,-59.138 -0.001,49.066 -10e-4,3.493 z"
   id="path3095"
   style="stroke:#000000;stroke-width:0;stroke-miterlimit:10" />
	<path
   d="m 299.035,14.187 c 0,-3.632 2.948,-6.58 6.582,-6.58 l 0,0 h 19.095 L 299.035,66.744 V 17.679 14.187 z"
   id="path3097"
   style="stroke:#000000;stroke-width:0;stroke-miterlimit:10" />
	<path
   d="m 366.908,70.752 c 0,2.916 -2.369,5.285 -5.288,5.285 l 0,0 h -17.122 l 22.41,-51.611 v 42.834 3.492 z"
   id="path3099"
   style="fill:#ffbf00;stroke:#000000;stroke-width:0;stroke-miterlimit:10" />
	<path
   d="m 300.329,14.187 c 0,-2.918 2.369,-5.286 5.288,-5.286 l 0,0 h 17.121 l -22.409,51.61 V 17.679 14.187 z"
   id="path3101"
   style="fill:#ffbf00;stroke:#000000;stroke-width:0;stroke-miterlimit:10" />
	<line
   stroke-miterlimit="10"
   x1="335.92401"
   y1="77.232002"
   x2="306.74701"
   y2="77.232002"
   id="line3103"
   stroke-width="0"
   stroke="#000000"
   style="stroke:#000000;stroke-width:0;stroke-miterlimit:10" />
	<polygon
   points="314.588,38.074 310.25,48.064 325.311,48.064 317.923,65.08 328.758,65.08 336.144,48.064 352.031,48.064 356.369,38.074 "
   id="polygon3105"
   style="stroke:#000000;stroke-width:0;stroke-miterlimit:10" />
	<path
   d="M 337.677,19.646 330.77,35.55 h 11.337 l 6.887,-15.863 c 0.351,-0.906 1.563,-1.638 2.69,-1.645 1.691,-0.011 1.891,1.014 1.454,2.118 l -6.683,15.39 h 11.01 l 8.639,-19.895 0.063,-0.322 0.147,-0.808 V 13.72 l -0.072,-0.807 -0.221,-0.807 -0.293,-0.733 -0.441,-0.734 L 364.7,9.98 364.114,9.394 363.381,8.807 362.574,8.367 361.694,8 360.741,7.633 359.788,7.487 358.835,7.34 h -0.954 l -1.025,0.073 -0.953,0.146 -0.954,0.293 -0.879,0.367 -0.809,0.439 -0.733,0.514 -0.732,0.586 -0.514,0.661 -0.586,-0.661 -0.734,-0.586 -0.733,-0.514 -0.806,-0.439 -0.953,-0.367 -0.88,-0.293 -1.027,-0.146 -0.952,-0.073 h -1.028 l -0.952,0.147 -0.954,0.218 -0.954,0.295 -0.881,0.44 -0.807,0.44 -0.002,0.003 -0.15,0.054 v 0 c -0.042,0.01 -0.084,0.015 -0.127,0.015 -0.295,0 -0.535,-0.24 -0.535,-0.535 0,-0.045 0.006,-0.091 0.018,-0.135 v 0 l 0.408,-0.94 h -10.784 l -12.134,27.942 h 10.738 l 6.887,-15.863 c 0.271,-0.672 1.494,-1.36 2.476,-1.454 0.983,-0.092 2.336,0.466 1.847,1.679"
   id="path3107" />
	<path
   d="m 340.354,74.358 c -1.129,1.692 -2.455,2.482 -4.427,2.876 h -29.212 c -1.917,-0.349 -3.844,-1.096 -4.869,-2.876 -1.037,-1.801 -1.187,-3.709 -0.553,-5.665 l 7.981,-18.387 h 10.437 l -6.799,15.662 c -0.324,0.815 0.479,1.671 1.236,1.807 h 16.636 c 0.741,0.075 1.626,-0.584 1.917,-1.24 l 7.046,-16.229 h 11.314 l -10.717,24.066"
   id="path3109" />
</g>
<flowRoot
   transform="translate(-7.4863008e-6,0)"
   id="flowRoot5139"
   xml:space="preserve"
   style="font-size:29px;font-style:normal;font-variant:normal;font-weight:normal;font-stretch:normal;line-height:125%;letter-spacing:0px;word-spacing:0px;fill:#000000;fill-opacity:1;stroke:none;font-family:Geometr415 Blk BT;-inkscape-font-specification:Geometr415 Blk BT"><flowRegion
     id="flowRegion5141"><rect
       width="1.3874159"
       height="101.55884"
       x="455.34988"
       y="-70.865051"
       id="rect5143" /></flowRegion><flowPara
     id="flowPara5145"></flowPara></flowRoot><g
   id="text3187-3"
   style="font-size:25px;font-style:normal;font-variant:normal;font-weight:normal;font-stretch:normal;line-height:125%;letter-spacing:-0.84000003px;word-spacing:0px;fill:#000000;fill-opacity:1;stroke:none;font-family:Geometr415 Blk BT;-inkscape-font-specification:Geometr415 Blk BT"><path
     d="m 38.403931,48.8703 3.674316,-18.273925 0.305176,0 6.677246,11.523437 6.298828,-11.523437 0.317383,0 3.69873,18.273925 -4.016113,0 -1.501465,-8.081054 -4.748535,8.728027 -0.280762,0 -5.102539,-8.850098 -1.550293,8.203125 -3.771972,0"
     id="path5347" /><path
     d="m 60.330044,33.770203 c -10e-7,-0.585922 0.203449,-1.082341 0.610351,-1.489258 0.406899,-0.406884 0.903318,-0.610335 1.489258,-0.610352 0.594072,1.7e-5 1.090491,0.203468 1.489258,0.610352 0.406896,0.398779 0.610346,0.895198 0.610352,1.489258 -6e-6,0.585952 -0.203456,1.086439 -0.610352,1.501464 -0.406905,0.415053 -0.903324,0.622572 -1.489258,0.622559 -0.569664,1.3e-5 -1.062014,-0.207506 -1.477051,-0.622559 -0.41504,-0.423163 -0.622559,-0.92365 -0.622558,-1.501464 m 4.052734,15.100097 -3.869629,0 0,-10.998535 3.869629,-0.524902 0,11.523437"
     id="path5349" /><path
     d="m 76.006157,48.247742 c -0.675466,0.382487 -1.342783,0.663248 -2.001953,0.842285 -0.65105,0.187174 -1.322436,0.280761 -2.01416,0.280762 -1.83106,-1e-6 -3.336593,-0.549317 -4.516602,-1.64795 -1.171876,-1.09863 -1.757813,-2.49023 -1.757812,-4.174804 -10e-7,-1.749668 0.630695,-3.21451 1.892089,-4.394532 1.269528,-1.18814 2.860509,-1.782215 4.77295,-1.782226 0.699861,1.1e-5 1.383454,0.08139 2.050781,0.24414 0.667307,0.154634 1.31021,0.390636 1.928711,0.708008 l -0.427246,3.417969 c -0.602224,-0.366203 -1.184092,-0.642896 -1.745606,-0.830078 -0.553394,-0.195304 -1.070158,-0.292961 -1.550293,-0.292969 -0.862637,8e-6 -1.578782,0.264494 -2.148437,0.793457 -0.569667,0.52084 -0.854497,1.171881 -0.854492,1.953125 -5e-6,0.830083 0.26448,1.4974 0.793457,2.001953 0.528965,0.504561 1.224765,0.756839 2.087402,0.756836 0.537101,3e-6 1.110831,-0.113929 1.721191,-0.341797 0.610342,-0.235999 1.318349,-0.614416 2.124024,-1.135254 l -0.354004,3.601075"
     id="path5351" /><path
     d="m 81.599262,48.8703 -3.820801,0 0,-17.419433 3.820801,-0.524903 0,8.496094 c 0.537104,-0.626617 1.110834,-1.090484 1.721192,-1.391601 0.618482,-0.309234 1.285799,-0.463856 2.001953,-0.463868 1.163727,1.2e-5 2.046701,0.33367 2.648926,1.000977 0.602201,0.667327 0.903307,1.643889 0.90332,2.929687 l 0,7.373047 -3.796387,0 0,-6.298828 c -9e-6,-0.577792 -0.11801,-1.013176 -0.354004,-1.306152 -0.236011,-0.292961 -0.585945,-0.439445 -1.049804,-0.439453 -0.667325,8e-6 -1.18002,0.223803 -1.538086,0.671386 -0.358079,0.447598 -0.537115,1.09864 -0.53711,1.953125 l 0,5.419922"
     id="path5353" /><path
     d="m 90.573715,33.770203 c -1e-6,-0.585922 0.203449,-1.082341 0.610352,-1.489258 0.406899,-0.406884 0.903317,-0.610335 1.489258,-0.610352 0.594071,1.7e-5 1.09049,0.203468 1.489257,0.610352 0.406896,0.398779 0.610347,0.895198 0.610352,1.489258 -5e-6,0.585952 -0.203456,1.086439 -0.610352,1.501464 -0.406905,0.415053 -0.903324,0.622572 -1.489257,0.622559 -0.569665,1.3e-5 -1.062014,-0.207506 -1.477051,-0.622559 -0.415041,-0.423163 -0.62256,-0.92365 -0.622559,-1.501464 m 4.052735,15.100097 -3.869629,0 0,-10.998535 3.869629,-0.524902 0,11.523437"
     id="path5355" /><path
     d="m 103.72297,40.667175 c -0.22787,-0.1302 -0.4476,-0.223787 -0.65918,-0.280761 -0.20346,-0.05696 -0.40691,-0.08544 -0.61035,-0.08545 -0.72429,9e-6 -1.33464,0.305184 -1.83105,0.915528 -0.49643,0.60222 -0.744637,1.363124 -0.744632,2.282715 -5e-6,0.862634 0.215652,1.582848 0.646972,2.160644 0.43945,0.569664 0.97249,0.854495 1.59912,0.854492 0.24414,3e-6 0.50048,-0.06917 0.76904,-0.207519 0.27669,-0.138344 0.55338,-0.341794 0.83008,-0.610352 l 0,-5.029297 m 3.83301,-2.79541 0,9.973145 c -1e-5,1.009114 -0.0488,1.765949 -0.14648,2.270507 -0.0977,0.512694 -0.25636,0.98063 -0.47608,1.403809 -0.45574,0.878903 -1.11899,1.542151 -1.98974,1.989746 -0.87078,0.455724 -1.92465,0.683589 -3.16163,0.683594 -0.74056,-5e-6 -1.49333,-0.08139 -2.258296,-0.244141 -0.756839,-0.162765 -1.562503,-0.415043 -2.416992,-0.756836 l -0.04883,-3.051757 c 0.813799,0.439451 1.554358,0.760902 2.221679,0.964355 0.667313,0.211586 1.293939,0.31738 1.879889,0.317383 0.85448,-3e-6 1.51773,-0.203453 1.98974,-0.610352 0.472,-0.406902 0.708,-0.980632 0.70801,-1.721191 l 0,-0.744629 c -0.43946,0.276693 -0.87484,0.480143 -1.30615,0.610352 -0.43132,0.130208 -0.88705,0.195312 -1.36719,0.195312 -1.554368,0 -2.811691,-0.520833 -3.771974,-1.5625 -0.95215,-1.041664 -1.428224,-2.412919 -1.428223,-4.11377 -10e-7,-1.765943 0.541177,-3.226716 1.623535,-4.382324 1.082353,-1.163726 2.449542,-1.745594 4.101562,-1.745605 0.38248,1.1e-5 0.78125,0.05291 1.19629,0.158691 0.41503,0.105806 0.87483,0.268566 1.3794,0.488281 l 3.27148,-0.12207"
     id="path5357" /><path
     d="m 116.70133,40.667175 c -0.22787,-0.1302 -0.4476,-0.223787 -0.65918,-0.280761 -0.20346,-0.05696 -0.40691,-0.08544 -0.61035,-0.08545 -0.72429,9e-6 -1.33464,0.305184 -1.83105,0.915528 -0.49643,0.60222 -0.74464,1.363124 -0.74463,2.282715 -1e-5,0.862634 0.21565,1.582848 0.64697,2.160644 0.43945,0.569664 0.97249,0.854495 1.59912,0.854492 0.25227,3e-6 0.50862,-0.0651 0.76904,-0.195312 0.26855,-0.138344 0.54524,-0.345863 0.83008,-0.622559 l 0,-5.029297 m 3.83301,-2.79541 0,6.872559 c -1e-5,0.862633 0.0163,1.586916 0.0488,2.172851 0.0325,0.585939 0.0814,1.086427 0.14648,1.501465 l -3.55224,0.976563 -0.3418,-1.049805 c -0.48015,0.358073 -0.95216,0.622558 -1.41602,0.793457 -0.45573,0.170898 -0.93587,0.256347 -1.44043,0.256348 -1.41602,-1e-6 -2.60823,-0.565593 -3.57666,-1.696778 -0.96028,-1.131182 -1.44043,-2.539058 -1.44043,-4.223633 0,-1.774081 0.54118,-3.238923 1.62354,-4.394531 1.08235,-1.155588 2.44954,-1.733387 4.10156,-1.733398 0.38248,1.1e-5 0.78124,0.05291 1.19629,0.158691 0.41503,0.105806 0.87483,0.268566 1.3794,0.488281 l 3.27148,-0.12207"
     id="path5359" /><path
     d="m 126.43262,48.8703 -3.8208,0 0,-10.998535 3.52784,0 0,1.843262 c 0.58593,-0.724274 1.20849,-1.261383 1.86767,-1.611328 0.65917,-0.358062 1.37532,-0.537098 2.14844,-0.53711 1.16373,1.2e-5 2.0467,0.33367 2.64893,1.000977 0.6022,0.667327 0.9033,1.643889 0.90332,2.929687 l 0,7.373047 -3.79639,0 0,-6.298828 c -1e-5,-0.577792 -0.11801,-1.013176 -0.35401,-1.306152 -0.23601,-0.292961 -0.58594,-0.439445 -1.0498,-0.439453 -0.66732,8e-6 -1.18002,0.223803 -1.53809,0.671386 -0.35807,0.447598 -0.53711,1.09864 -0.53711,1.953125 l 0,5.419922"
     id="path5361" /></g><g
   id="text3187-38"
   style="font-size:25px;font-style:normal;font-variant:normal;font-weight:normal;font-stretch:normal;line-height:125%;letter-spacing:-0.84000003px;word-spacing:0px;fill:#000000;fill-opacity:1;stroke:none;font-family:Geometr415 Blk BT;-inkscape-font-specification:Geometr415 Blk BT"><path
     d="m 145.35027,48.686539 0,-14.001465 -5.62745,0 0,-3.698731 15.45411,0 0,3.698731 -5.60303,0 0,14.001465 -4.22363,0"
     id="path5364" /><path
     d="m 158.82691,42.155777 4.77295,-0.146484 0,-0.170899 c -1e-5,-0.577792 -0.20346,-1.049797 -0.61036,-1.416015 -0.40691,-0.374341 -0.9196,-0.561515 -1.53808,-0.561524 -0.69174,9e-6 -1.26954,0.203459 -1.7334,0.610352 -0.46387,0.398771 -0.76091,0.960293 -0.89111,1.68457 m 7.2998,2.600098 -0.42725,3.381347 c -0.7487,0.358073 -1.48519,0.622559 -2.20947,0.793457 -0.72429,0.170898 -1.45671,0.256347 -2.19726,0.256348 -1.83106,-10e-7 -3.30811,-0.524902 -4.43116,-1.574707 -1.12304,-1.057941 -1.68457,-2.433265 -1.68457,-4.125977 0,-1.765943 0.61442,-3.255199 1.84327,-4.467773 1.22883,-1.220692 2.72216,-1.831043 4.47998,-1.831055 1.50552,1.2e-5 2.73843,0.447602 3.69873,1.342774 0.96841,0.887053 1.45262,2.038582 1.45263,3.45459 -1e-5,0.219733 -0.0163,0.569667 -0.0488,1.049804 l -0.0122,0.07324 -0.3418,0.500489 -7.50732,0.207519 c 0.057,0.740564 0.3662,1.342777 0.92773,1.806641 0.56152,0.455732 1.26953,0.683596 2.12402,0.683594 0.60221,2e-6 1.26953,-0.130206 2.00196,-0.390625 0.74055,-0.260414 1.51773,-0.64697 2.33154,-1.159668"
     id="path5366" /><path
     d="m 177.61581,48.06398 c -0.67546,0.382487 -1.34278,0.663249 -2.00195,0.842285 -0.65105,0.187174 -1.32244,0.280761 -2.01416,0.280762 -1.83106,-10e-7 -3.33659,-0.549316 -4.5166,-1.647949 -1.17188,-1.098631 -1.75782,-2.490231 -1.75782,-4.174805 0,-1.749667 0.6307,-3.21451 1.89209,-4.394531 1.26953,-1.18814 2.86051,-1.782215 4.77295,-1.782227 0.69987,1.2e-5 1.38346,0.08139 2.05079,0.244141 0.6673,0.154633 1.31021,0.390636 1.92871,0.708008 l -0.42725,3.417968 c -0.60222,-0.366203 -1.18409,-0.642895 -1.74561,-0.830078 -0.55339,-0.195304 -1.07015,-0.29296 -1.55029,-0.292968 -0.86264,8e-6 -1.57878,0.264493 -2.14844,0.793457 -0.56966,0.52084 -0.85449,1.171881 -0.85449,1.953125 0,0.830082 0.26448,1.497399 0.79346,2.001953 0.52896,0.50456 1.22476,0.756838 2.0874,0.756836 0.5371,2e-6 1.11083,-0.11393 1.72119,-0.341797 0.61034,-0.235999 1.31835,-0.614417 2.12403,-1.135254 l -0.35401,3.601074"
     id="path5368" /><path
     d="m 183.20892,48.686539 -3.8208,0 0,-17.419434 3.8208,-0.524902 0,8.496094 c 0.5371,-0.626618 1.11083,-1.090485 1.72119,-1.391602 0.61848,-0.309234 1.2858,-0.463856 2.00195,-0.463867 1.16373,1.1e-5 2.04671,0.33367 2.64893,1.000976 0.6022,0.667328 0.90331,1.643889 0.90332,2.929688 l 0,7.373047 -3.79639,0 0,-6.298828 c -1e-5,-0.577793 -0.11801,-1.013177 -0.354,-1.306153 -0.23601,-0.292961 -0.58595,-0.439445 -1.04981,-0.439453 -0.66732,8e-6 -1.18001,0.223803 -1.53808,0.671387 -0.35808,0.447598 -0.53712,1.098639 -0.53711,1.953125 l 0,5.419922"
     id="path5370" /><path
     d="m 196.28493,48.686539 -3.8208,0 0,-10.998535 3.52784,0 0,1.843261 c 0.58593,-0.724274 1.20849,-1.261383 1.86767,-1.611328 0.65917,-0.358062 1.37532,-0.537098 2.14844,-0.537109 1.16373,1.1e-5 2.0467,0.33367 2.64893,1.000976 0.6022,0.667328 0.9033,1.643889 0.90332,2.929688 l 0,7.373047 -3.79639,0 0,-6.298828 c -1e-5,-0.577793 -0.11801,-1.013177 -0.35401,-1.306153 -0.23601,-0.292961 -0.58594,-0.439445 -1.0498,-0.439453 -0.66732,8e-6 -1.18002,0.223803 -1.53809,0.671387 -0.35807,0.447598 -0.53711,1.098639 -0.53711,1.953125 l 0,5.419922"
     id="path5372" /><path
     d="m 208.71397,43.181168 c 0,0.935877 0.19938,1.692712 0.59815,2.270507 0.40689,0.569665 0.92366,0.854495 1.55029,0.854493 0.62662,2e-6 1.13932,-0.288897 1.53809,-0.8667 0.40689,-0.577795 0.61034,-1.330561 0.61035,-2.2583 -1e-5,-0.91959 -0.20346,-1.668287 -0.61035,-2.246094 -0.39877,-0.585929 -0.91147,-0.878898 -1.53809,-0.878906 -0.62663,8e-6 -1.1434,0.288908 -1.55029,0.866699 -0.39877,0.577806 -0.59815,1.330573 -0.59815,2.258301 m -3.90625,0 c 0,-1.749668 0.56966,-3.190096 1.70899,-4.321289 1.14746,-1.131174 2.59602,-1.696766 4.3457,-1.696778 1.75781,1.2e-5 3.21044,0.565604 4.35791,1.696778 1.14745,1.131193 1.72118,2.571621 1.72119,4.321289 -1e-5,1.749678 -0.57374,3.194175 -1.72119,4.333496 -1.14747,1.131185 -2.6001,1.696777 -4.35791,1.696777 -1.74154,0 -3.18604,-0.565592 -4.33349,-1.696777 -1.14747,-1.139321 -1.7212,-2.583818 -1.7212,-4.333496"
     id="path5374" /><path
     d="m 222.62399,48.686539 -3.86963,0 0,-17.419434 3.86963,-0.524902 0,17.944336"
     id="path5376" /><path
     d="m 227.82648,43.181168 c -1e-5,0.935877 0.19937,1.692712 0.59814,2.270507 0.4069,0.569665 0.92366,0.854495 1.55029,0.854493 0.62662,2e-6 1.13932,-0.288897 1.53809,-0.8667 0.40689,-0.577795 0.61034,-1.330561 0.61035,-2.2583 -10e-6,-0.91959 -0.20346,-1.668287 -0.61035,-2.246094 -0.39877,-0.585929 -0.91147,-0.878898 -1.53809,-0.878906 -0.62663,8e-6 -1.14339,0.288908 -1.55029,0.866699 -0.39877,0.577806 -0.59815,1.330573 -0.59814,2.258301 m -3.90625,0 c 0,-1.749668 0.56966,-3.190096 1.70898,-4.321289 1.14746,-1.131174 2.59602,-1.696766 4.3457,-1.696778 1.75781,1.2e-5 3.21044,0.565604 4.35791,1.696778 1.14745,1.131193 1.72118,2.571621 1.7212,4.321289 -2e-5,1.749678 -0.57375,3.194175 -1.7212,4.333496 -1.14747,1.131185 -2.6001,1.696777 -4.35791,1.696777 -1.74154,0 -3.18603,-0.565592 -4.33349,-1.696777 -1.14746,-1.139321 -1.72119,-2.583818 -1.72119,-4.333496"
     id="path5378" /><path
     d="m 245.0124,40.783417 c -0.22788,-0.1302 -0.4476,-0.223787 -0.65918,-0.280762 -0.20346,-0.05696 -0.40691,-0.08544 -0.61035,-0.08545 -0.72429,8e-6 -1.33464,0.305184 -1.83106,0.915527 -0.49642,0.602221 -0.74463,1.363125 -0.74463,2.282715 0,0.862635 0.21566,1.582849 0.64698,2.160645 0.43944,0.569664 0.97248,0.854494 1.59912,0.854492 0.24413,2e-6 0.50048,-0.06917 0.76904,-0.20752 0.27668,-0.138343 0.55338,-0.341794 0.83008,-0.610351 l 0,-5.029297 m 3.83301,-2.79541 0,9.973144 c -2e-5,1.009115 -0.0488,1.76595 -0.14649,2.270508 -0.0977,0.512693 -0.25636,0.980629 -0.47607,1.403809 -0.45574,0.878902 -1.11899,1.54215 -1.98975,1.989746 -0.87078,0.455724 -1.92465,0.683588 -3.16162,0.683593 -0.74057,-5e-6 -1.49333,-0.08139 -2.2583,-0.24414 -0.75684,-0.162766 -1.5625,-0.415044 -2.41699,-0.756836 l -0.0488,-3.051758 c 0.8138,0.439451 1.55436,0.760903 2.22168,0.964355 0.66731,0.211587 1.29394,0.317381 1.87988,0.317383 0.85449,-2e-6 1.51773,-0.203453 1.98975,-0.610351 0.47199,-0.406903 0.708,-0.980633 0.70801,-1.721192 l 0,-0.744629 c -0.43947,0.276693 -0.87485,0.480144 -1.30616,0.610352 -0.43132,0.130208 -0.88705,0.195312 -1.36718,0.195312 -1.55437,0 -2.81169,-0.520833 -3.77198,-1.5625 -0.95215,-1.041664 -1.42822,-2.412919 -1.42822,-4.113769 0,-1.765943 0.54118,-3.226717 1.62354,-4.382324 1.08235,-1.163726 2.44953,-1.745594 4.10156,-1.745606 0.38248,1.2e-5 0.78124,0.05291 1.19629,0.158692 0.41503,0.105805 0.87483,0.268565 1.37939,0.488281 l 3.27149,-0.12207"
     id="path5380" /><path
     d="m 250.64212,33.886444 c 0,-0.585922 0.20345,-1.08234 0.61035,-1.489258 0.4069,-0.406884 0.90332,-0.610334 1.48926,-0.610351 0.59407,1.7e-5 1.09049,0.203467 1.48926,0.610351 0.40689,0.398779 0.61034,0.895198 0.61035,1.489258 -1e-5,0.585952 -0.20346,1.08644 -0.61035,1.501465 -0.40691,0.415052 -0.90333,0.622572 -1.48926,0.622559 -0.56966,1.3e-5 -1.06201,-0.207507 -1.47705,-0.622559 -0.41504,-0.423163 -0.62256,-0.923651 -0.62256,-1.501465 m 4.05273,15.100098 -3.86962,0 0,-10.998535 3.86962,-0.524903 0,11.523438"
     id="path5382" /><path
     d="m 266.51823,48.363983 c -0.67546,0.382487 -1.34278,0.663249 -2.00195,0.842285 -0.65105,0.187174 -1.32244,0.280762 -2.01416,0.280762 -1.83106,0 -3.33659,-0.549316 -4.5166,-1.647949 -1.17188,-1.098631 -1.75781,-2.490231 -1.75781,-4.174805 0,-1.749667 0.63069,-3.21451 1.89209,-4.394531 1.26952,-1.18814 2.86051,-1.782215 4.77295,-1.782227 0.69986,1.2e-5 1.38345,0.08139 2.05078,0.244141 0.6673,0.154633 1.31021,0.390636 1.92871,0.708008 l -0.42725,3.417968 c -0.60222,-0.366203 -1.18409,-0.642895 -1.7456,-0.830078 -0.5534,-0.195304 -1.07016,-0.29296 -1.5503,-0.292968 -0.86263,8e-6 -1.57878,0.264493 -2.14843,0.793457 -0.56967,0.52084 -0.8545,1.171881 -0.8545,1.953125 0,0.830082 0.26448,1.497399 0.79346,2.001953 0.52897,0.50456 1.22477,0.756838 2.0874,0.756836 0.5371,2e-6 1.11083,-0.11393 1.72119,-0.341797 0.61035,-0.235999 1.31835,-0.614417 2.12403,-1.135254 l -0.35401,3.601074"
     id="path5384" /><path
     d="m 275.84841,40.783417 c -0.22787,-0.1302 -0.4476,-0.223787 -0.65918,-0.280762 -0.20346,-0.05696 -0.40691,-0.08544 -0.61035,-0.08545 -0.72429,8e-6 -1.33464,0.305184 -1.83105,0.915527 -0.49643,0.602221 -0.74464,1.363125 -0.74463,2.282715 -10e-6,0.862635 0.21565,1.582849 0.64697,2.160645 0.43945,0.569664 0.97249,0.854494 1.59912,0.854492 0.25227,2e-6 0.50862,-0.0651 0.76904,-0.195313 0.26855,-0.138343 0.54524,-0.345863 0.83008,-0.622558 l 0,-5.029297 m 3.83301,-2.79541 0,6.872558 c -10e-6,0.862634 0.0163,1.586917 0.0488,2.172852 0.0325,0.585939 0.0814,1.086426 0.14648,1.501465 l -3.55224,0.976562 -0.3418,-1.049805 c -0.48015,0.358073 -0.95216,0.622559 -1.41602,0.793457 -0.45573,0.170898 -0.93588,0.256348 -1.44043,0.256348 -1.41602,0 -2.60824,-0.565592 -3.57666,-1.696777 -0.96028,-1.131183 -1.44043,-2.539059 -1.44043,-4.223633 0,-1.774081 0.54118,-3.238924 1.62354,-4.394531 1.08235,-1.155588 2.44954,-1.733387 4.10156,-1.733399 0.38248,1.2e-5 0.78124,0.05291 1.19629,0.158692 0.41503,0.105805 0.87483,0.268565 1.37939,0.488281 l 3.27149,-0.12207"
     id="path5386" /><path
     d="m 285.53087,48.986542 -3.86963,0 0,-17.419434 3.86963,-0.524902 0,17.944336"
     id="path5388" /></g><g
   id="text3187-4"
   style="font-size:25px;font-style:normal;font-variant:normal;font-weight:normal;font-stretch:normal;line-height:125%;letter-spacing:-0.84000003px;word-spacing:0px;fill:#000000;fill-opacity:1;stroke:none;font-family:Geometr415 Blk BT;-inkscape-font-specification:Geometr415 Blk BT"><path
     d="m 385.31357,31.171329 0,9.729004 c -1e-5,1.562507 0.28482,2.734381 0.85449,3.515625 0.57779,0.773116 1.44856,1.159672 2.6123,1.159668 1.12304,4e-6 1.97753,-0.362138 2.56348,-1.086425 0.59406,-0.724279 0.8911,-1.778152 0.89111,-3.161622 l 0,-10.15625 3.77198,0 0,10.15625 c -2e-5,2.555344 -0.65513,4.549157 -1.96533,5.981446 -1.31024,1.424154 -3.12909,2.13623 -5.45655,2.13623 -2.35189,0 -4.18295,-0.708007 -5.49316,-2.124023 -1.30209,-1.416013 -1.95313,-3.405757 -1.95313,-5.969238 l 0,-10.180665 4.17481,0"
     id="path5326" /><path
     d="m 402.37908,48.871525 -3.8208,0 0,-10.998535 3.52783,0 0,1.843261 c 0.58593,-0.724274 1.20849,-1.261382 1.86767,-1.611328 0.65918,-0.358062 1.37532,-0.537098 2.14844,-0.537109 1.16373,1.1e-5 2.0467,0.33367 2.64893,1.000976 0.6022,0.667328 0.9033,1.643889 0.90332,2.929688 l 0,7.373047 -3.79639,0 0,-6.298828 c -10e-6,-0.577793 -0.11801,-1.013177 -0.354,-1.306153 -0.23601,-0.292961 -0.58595,-0.439445 -1.04981,-0.439453 -0.66732,8e-6 -1.18002,0.223804 -1.53808,0.671387 -0.35808,0.447598 -0.53712,1.098639 -0.53711,1.953125 l 0,5.419922"
     id="path5328" /><path
     d="m 411.82353,33.771427 c 0,-0.585922 0.20345,-1.08234 0.61035,-1.489258 0.4069,-0.406884 0.90332,-0.610334 1.48926,-0.610351 0.59407,1.7e-5 1.09049,0.203467 1.48926,0.610351 0.40689,0.39878 0.61034,0.895198 0.61035,1.489258 -10e-6,0.585952 -0.20346,1.08644 -0.61035,1.501465 -0.40691,0.415052 -0.90333,0.622572 -1.48926,0.622559 -0.56967,1.3e-5 -1.06202,-0.207507 -1.47705,-0.622559 -0.41504,-0.423163 -0.62256,-0.923651 -0.62256,-1.501465 m 4.05273,15.100098 -3.86963,0 0,-10.998535 3.86963,-0.524903 0,11.523438"
     id="path5330" /><path
     d="m 422.84013,49.567326 -5.51758,-11.694336 4.22363,0 1.81885,4.199218 1.9043,-4.199218 3.52783,0 -5.60303,11.694336 -0.354,0"
     id="path5332" /><path
     d="m 432.863,42.340763 4.77295,-0.146484 0,-0.170899 c -10e-6,-0.577792 -0.20346,-1.049797 -0.61035,-1.416015 -0.40691,-0.374341 -0.9196,-0.561515 -1.53809,-0.561524 -0.69173,9e-6 -1.26953,0.203459 -1.73339,0.610352 -0.46388,0.398771 -0.76091,0.960293 -0.89112,1.68457 m 7.29981,2.600098 -0.42725,3.381347 c -0.74871,0.358074 -1.4852,0.622559 -2.20947,0.793457 -0.72429,0.170898 -1.45671,0.256348 -2.19727,0.256348 -1.83106,0 -3.30811,-0.524902 -4.43115,-1.574707 -1.12305,-1.057941 -1.68457,-2.433265 -1.68457,-4.125977 0,-1.765943 0.61442,-3.255199 1.84326,-4.467773 1.22884,-1.220692 2.72216,-1.831043 4.47998,-1.831055 1.50553,1.2e-5 2.73844,0.447603 3.69873,1.342774 0.96842,0.887053 1.45263,2.038582 1.45264,3.45459 -10e-6,0.219733 -0.0163,0.569667 -0.0488,1.049804 l -0.0122,0.07324 -0.34179,0.500488 -7.50733,0.207519 c 0.057,0.740564 0.36621,1.342777 0.92774,1.806641 0.56152,0.455732 1.26952,0.683596 2.12402,0.683594 0.60221,2e-6 1.26952,-0.130206 2.00195,-0.390625 0.74055,-0.260414 1.51773,-0.64697 2.33155,-1.159668"
     id="path5334" /><path
     d="m 445.5624,48.871525 -3.84522,0 0,-10.998535 3.57666,0 0.0732,1.928711 c 0.43945,-0.773103 0.95215,-1.334625 1.53809,-1.684571 0.59407,-0.349924 1.33056,-0.524891 2.20947,-0.524902 l 0.30518,0 0,4.101562 -0.40283,0 -0.42725,0 c -1.1963,8e-6 -2.00196,0.138354 -2.41699,0.415039 -0.40691,0.268562 -0.61036,0.923672 -0.61035,1.965333 l 0,4.797363"
     id="path5336" /><path
     d="m 449.70515,48.371037 0,-3.027344 c 0.96842,0.618492 1.72119,1.0376 2.2583,1.257324 0.5371,0.211591 1.03352,0.317385 1.48926,0.317383 0.39875,2e-6 0.7202,-0.08545 0.96435,-0.256348 0.24414,-0.179034 0.36621,-0.410967 0.36621,-0.695801 0,-0.244137 -0.0855,-0.447587 -0.25635,-0.610351 -0.1709,-0.162757 -0.46387,-0.317379 -0.8789,-0.463867 L 452.232,44.391544 c -0.92774,-0.317378 -1.63167,-0.760899 -2.11181,-1.330566 -0.48015,-0.577793 -0.72022,-1.257317 -0.72022,-2.038574 0,-1.106762 0.38656,-1.993806 1.15967,-2.661133 0.77311,-0.675445 1.80257,-1.013172 3.08838,-1.013184 0.59407,1.2e-5 1.22069,0.08546 1.87988,0.256348 0.66731,0.162771 1.40787,0.419119 2.22168,0.769043 l -0.47607,2.67334 c -0.48829,-0.415031 -1.02133,-0.740552 -1.59912,-0.976563 -0.57781,-0.235993 -1.11899,-0.353994 -1.62354,-0.354004 -0.37435,1e-5 -0.67953,0.08953 -0.91553,0.268555 -0.236,0.170907 -0.35401,0.390634 -0.354,0.65918 -10e-6,0.227872 0.0651,0.410978 0.19531,0.549316 0.13834,0.130216 0.43945,0.272631 0.90332,0.427246 l 1.31836,0.476074 c 1.03352,0.366218 1.77001,0.80974 2.20947,1.330567 0.44759,0.520838 0.67138,1.200362 0.67139,2.038574 -10e-6,1.212567 -0.39877,2.172853 -1.19629,2.880859 -0.79753,0.69987 -1.88396,1.049805 -3.25928,1.049805 -0.66732,0 -1.3265,-0.08545 -1.97754,-0.256348 -0.6429,-0.16276 -1.28987,-0.419107 -1.94091,-0.769042"
     id="path5338" /><path
     d="m 460.21892,33.771427 c 0,-0.585922 0.20345,-1.08234 0.61035,-1.489258 0.4069,-0.406884 0.90332,-0.610334 1.48926,-0.610351 0.59407,1.7e-5 1.09049,0.203467 1.48926,0.610351 0.40689,0.39878 0.61034,0.895198 0.61035,1.489258 -10e-6,0.585952 -0.20346,1.08644 -0.61035,1.501465 -0.40691,0.415052 -0.90333,0.622572 -1.48926,0.622559 -0.56967,1.3e-5 -1.06202,-0.207507 -1.47705,-0.622559 -0.41504,-0.423163 -0.62256,-0.923651 -0.62256,-1.501465 m 4.05273,15.100098 -3.86963,0 0,-10.998535 3.86963,-0.524903 0,11.523438"
     id="path5340" /><path
     d="m 467.31287,45.172794 0,-4.406738 -1.59912,0 0,-2.893066 1.59912,0 0,-3.295899 3.90625,-0.524902 0,3.820801 2.60009,0 0,2.893066 -2.60009,0 0,4.675293 c -10e-6,0.992841 0.13427,1.713055 0.40283,2.160645 0.26855,0.439454 0.7731,0.846354 1.51367,1.220703 l -4.3457,0.292968 c -0.54525,-0.260416 -0.92774,-0.646972 -1.14746,-1.159668 -0.21973,-0.520831 -0.3296,-1.448565 -0.32959,-2.783203"
     id="path5342" /><path
     d="m 477.47181,48.871525 -3.95508,-10.998535 4.12598,0 1.77002,5.676269 2.18506,-5.676269 3.39355,0 -6.89697,16.3208 -4.12598,0 c 0.61849,-0.585942 1.18815,-1.24919 1.70899,-1.989746 0.52896,-0.732424 0.98469,-1.517742 1.36718,-2.355957 l 0.42725,-0.976562"
     id="path5344" /></g></svg>