<?xml version="1.0" encoding="UTF-8" standalone="no"?>
<!-- Created with Inkscape (http://www.inkscape.org/) -->

<svg
   xmlns:dc="http://purl.org/dc/elements/1.1/"
   xmlns:cc="http://creativecommons.org/ns#"
   xmlns:rdf="http://www.w3.org/1999/02/22-rdf-syntax-ns#"
   xmlns:svg="http://www.w3.org/2000/svg"
   xmlns="http://www.w3.org/2000/svg"
   xmlns:sodipodi="http://sodipodi.sourceforge.net/DTD/sodipodi-0.dtd"
   xmlns:inkscape="http://www.inkscape.org/namespaces/inkscape"
   version="1.2"
   width="84.044998"
   height="84.989998"
   viewBox="0 0 84.044997 84.989999"
   id="Layer_1"
   xml:space="preserve"
   style="overflow:visible"
   inkscape:version="0.48.4 r9939"
   sodipodi:docname="MTUsqbow.svg"><sodipodi:namedview
     pagecolor="#ffffff"
     bordercolor="#666666"
     borderopacity="1"
     objecttolerance="10"
     gridtolerance="10"
     guidetolerance="10"
     inkscape:pageopacity="0"
     inkscape:pageshadow="2"
     inkscape:window-width="1436"
     inkscape:window-height="880"
     id="namedview3155"
     showgrid="false"
     inkscape:zoom="7.6950232"
     inkscape:cx="42.022492"
     inkscape:cy="42.494999"
     inkscape:window-x="0"
     inkscape:window-y="18"
     inkscape:window-maximized="0"
     inkscape:current-layer="Layer_1"
     fit-margin-top="0"
     fit-margin-left="0"
     fit-margin-right="0"
     fit-margin-bottom="0" /><metadata
     id="metadata3115"><rdf:RDF><cc:Work
         rdf:about=""><dc:format>image/svg+xml</dc:format><dc:type
           rdf:resource="http://purl.org/dc/dcmitype/StillImage" /><dc:title /></cc:Work></rdf:RDF></metadata><defs
     id="defs3113" /><rect
     transform="scale(-1,1)"
     y="0"
     x="-84.044991"
     height="84.989998"
     width="84.044998"
     id="rect3122"
     style="fill:#ffffff;fill-opacity:1;stroke:none" /><path
     style="fill:#000000;fill-opacity:1;stroke:none"
     d="M 2.5 2.53125 L 2.5 82.46875 L 81.53125 82.46875 L 81.53125 2.53125 L 2.5 2.53125 z M 5.03125 4.96875 L 79 4.96875 L 79 79.90625 L 5.03125 79.90625 L 5.03125 4.96875 z M 36.375 7.34375 L 24.25 35.28125 L 34.96875 35.28125 L 41.875 19.4375 C 42.146 18.7655 43.36175 18.06275 44.34375 17.96875 C 45.32675 17.87675 46.6765 18.44325 46.1875 19.65625 L 39.28125 35.5625 L 50.625 35.5625 L 57.5 19.6875 C 57.851 18.7815 59.0605 18.03825 60.1875 18.03125 C 61.8785 18.02025 62.09325 19.05225 61.65625 20.15625 L 54.96875 35.5625 L 65.96875 35.5625 L 74.625 15.65625 L 74.6875 15.34375 L 74.84375 14.53125 L 74.84375 13.71875 L 74.75 12.90625 L 74.53125 12.09375 L 74.25 11.375 L 73.8125 10.65625 L 73.21875 9.96875 L 72.625 9.40625 L 71.90625 8.8125 L 71.09375 8.375 L 70.21875 8 L 69.25 7.625 L 68.3125 7.5 L 67.34375 7.34375 L 66.40625 7.34375 L 65.375 7.40625 L 64.40625 7.5625 L 63.46875 7.84375 L 62.59375 8.21875 L 61.78125 8.65625 L 61.03125 9.1875 L 60.3125 9.75 L 59.8125 10.40625 L 59.21875 9.75 L 58.46875 9.1875 L 57.75 8.65625 L 56.9375 8.21875 L 56 7.84375 L 55.09375 7.5625 L 54.0625 7.40625 L 53.125 7.34375 L 52.09375 7.34375 L 51.15625 7.5 L 50.1875 7.71875 L 49.25 8 L 48.34375 8.4375 L 47.5625 8.875 L 47.40625 8.9375 C 47.36425 8.9475 47.32425 8.96875 47.28125 8.96875 C 46.98625 8.96875 46.75 8.70125 46.75 8.40625 C 46.75 8.36125 46.738 8.32525 46.75 8.28125 L 47.15625 7.34375 L 36.375 7.34375 z M 14.125 7.59375 C 10.491 7.59375 7.5625 10.5555 7.5625 14.1875 L 7.5625 17.6875 L 7.5625 66.75 L 33.21875 7.59375 L 14.125 7.59375 z M 76.65625 18.40625 L 51 77.53125 L 70.09375 77.53125 L 70.15625 77.53125 C 73.76725 77.49825 76.65625 74.57775 76.65625 70.96875 L 76.65625 67.46875 L 76.65625 18.40625 z M 23.09375 38.0625 L 18.75 48.0625 L 33.8125 48.0625 L 26.4375 65.09375 L 37.28125 65.09375 L 44.65625 48.0625 L 60.53125 48.0625 L 64.875 38.0625 L 23.09375 38.0625 z M 17.78125 50.3125 L 9.8125 68.6875 C 9.1785 70.6435 9.3379999 72.574 10.375 74.375 C 11.4 76.155 13.30175 76.901 15.21875 77.25 L 44.4375 77.25 C 46.4095 76.856 47.746 76.067 48.875 74.375 L 48.84375 74.375 L 59.5625 50.3125 L 48.25 50.3125 L 41.21875 66.53125 C 40.92775 67.18725 40.0535 67.85625 39.3125 67.78125 L 22.65625 67.78125 C 21.89925 67.64525 21.1135 66.78375 21.4375 65.96875 L 28.21875 50.3125 L 17.78125 50.3125 z "
     id="rect3172"
     transform="translate(-1.146271e-6,0)" /><path
     inkscape:connector-curvature="0"
     style="fill:#ffbf00;stroke:#000000;stroke-width:0;stroke-miterlimit:10"
     id="path3099"
     d="m 75.422992,70.754001 c 0,2.916 -2.369,5.285 -5.288,5.285 l 0,0 h -17.122 l 22.41,-51.611 v 42.834 3.492 z" /><path
     inkscape:connector-curvature="0"
     style="fill:#ffbf00;stroke:#000000;stroke-width:0;stroke-miterlimit:10"
     id="path3101"
     d="m 8.8439919,14.189001 c 0,-2.918 2.3690001,-5.286 5.2880001,-5.286 l 0,0 h 17.121 l -22.4090001,51.61 v -42.832 -3.492 z" /><line
     style="stroke:#000000;stroke-width:0;stroke-miterlimit:10"
     id="line3103"
     y2="77.234001"
     x2="15.262001"
     y1="77.234001"
     x1="44.439003"
     stroke-miterlimit="10" /><flowRoot
     transform="translate(-291.48502,0.00200104)"
     id="flowRoot5139"
     xml:space="preserve"
     style="font-size:29px;font-style:normal;font-variant:normal;font-weight:normal;font-stretch:normal;line-height:125%;letter-spacing:0px;word-spacing:0px;fill:#000000;fill-opacity:1;stroke:none;font-family:Geometr415 Blk BT;-inkscape-font-specification:Geometr415 Blk BT"><flowRegion
       id="flowRegion5141"><rect
         width="1.3874159"
         height="101.55884"
         x="455.34988"
         y="-70.865051"
         id="rect5143" /></flowRegion><flowPara
       id="flowPara5145" /></flowRoot></svg>